<?xml version="1.0" standalone="no"?><!DOCTYPE svg PUBLIC "-//W3C//DTD SVG 1.1//EN" "http://www.w3.org/Graphics/SVG/1.1/DTD/svg11.dtd"><svg t="1626096985782" class="icon" viewBox="0 0 1024 1024" version="1.1" xmlns="http://www.w3.org/2000/svg" p-id="2554" xmlns:xlink="http://www.w3.org/1999/xlink" width="200" height="200"><defs><style type="text/css"></style></defs><path d="M832 469.333333c-12.8 0-21.333333 8.533333-21.333333 21.333333 0 12.8 8.533333 21.333333 21.333333 21.333333s21.333333-8.533333 21.333333-21.333333C853.333333 477.866667 844.8 469.333333 832 469.333333zM405.333333 256l213.333333 0c12.8 0 21.333333-8.533333 21.333333-21.333333 0-12.8-8.533333-21.333333-21.333333-21.333333L405.333333 213.333333c-12.8 0-21.333333 8.533333-21.333333 21.333333C384 247.466667 392.533333 256 405.333333 256zM512 426.666667c-70.4 0-128 57.6-128 128s57.6 128 128 128 128-57.6 128-128S582.4 426.666667 512 426.666667zM512 640c-46.933333 0-85.333333-38.4-85.333333-85.333333s38.4-85.333333 85.333333-85.333333 85.333333 38.4 85.333333 85.333333S558.933333 640 512 640zM896 213.333333l-85.333333 0c-64 0-64-85.333333-149.333333-85.333333s-149.333333 0-149.333333 0-64 0-149.333333 0-85.333333 85.333333-149.333333 85.333333L128 213.333333c-46.933333 0-85.333333 38.4-85.333333 85.333333l0 512c0 46.933333 38.4 85.333333 85.333333 85.333333l768 0c46.933333 0 85.333333-38.4 85.333333-85.333333L981.333333 298.666667C981.333333 251.733333 942.933333 213.333333 896 213.333333zM938.666667 640l-185.6 0c-4.266667 14.933333-12.8 29.866667-19.2 42.666667L938.666667 682.666667l0 128c0 23.466667-19.2 42.666667-42.666667 42.666667L128 853.333333c-23.466667 0-42.666667-19.2-42.666667-42.666667l0-128 204.8 0c-8.533333-12.8-14.933333-27.733333-19.2-42.666667L85.333333 640 85.333333 298.666667c0-23.466667 19.2-42.666667 42.666667-42.666667l85.333333 0c85.333333 0 85.333333-85.333333 149.333333-85.333333 42.666667 0 149.333333 0 149.333333 0s106.666667 0 149.333333 0c64 0 64 85.333333 149.333333 85.333333l85.333333 0c23.466667 0 42.666667 19.2 42.666667 42.666667L938.666667 640zM512 341.333333c-117.333333 0-213.333333 96-213.333333 213.333333 0 117.333333 96 213.333333 213.333333 213.333333s213.333333-96 213.333333-213.333333C725.333333 437.333333 629.333333 341.333333 512 341.333333zM512 725.333333c-93.866667 0-170.666667-76.8-170.666667-170.666667 0-93.866667 76.8-170.666667 170.666667-170.666667s170.666667 76.8 170.666667 170.666667C682.666667 648.533333 605.866667 725.333333 512 725.333333zM832 298.666667c-36.266667 0-64 27.733333-64 64 0 36.266667 27.733333 64 64 64s64-27.733333 64-64C896 326.4 868.266667 298.666667 832 298.666667zM832 384c-12.8 0-21.333333-8.533333-21.333333-21.333333 0-12.8 8.533333-21.333333 21.333333-21.333333s21.333333 8.533333 21.333333 21.333333C853.333333 375.466667 844.8 384 832 384z" p-id="2555"></path></svg>